# xmcd
# Track frame offsets:
# 150
# 12824
# 25327
# 38095
# 53022
# 71885
# 79780
# 91322
# 101809
# 117830
# 128762
# 150868
# 163479
# 181259
# 197273
#
# Disc length: 2814 seconds
# Revision: 0
# Processed by: cddbd v1.5.1PL2 Copyright (c) Steve Scherf et al.
# Submitted via: VisiTrax 2.9.10.228 - For more info visit www.synapsa.com
#
DISCID=b70afc0f
DTITLE=Tommy Cash - A Musical Tribute"My Brother Johnny Cash"
DYEAR=2004
DGENRE=
TTITLE0=Folsom Prison Blues
TTITLE1=Ring of Fire
TTITLE2=Give My love To Rose
TTITLE3=Passin`Through
TTITLE4=Sunday Morning Coming Down
TTITLE5=Five Feet High and Rising
TTITLE6=Flesh and Blood
TTITLE7=Daddy Sang Bass
TTITLE8=Hurt
TTITLE9=Get Rhytm
TTITLE10=Hey Porter/cry,cry,cry
TTITLE11=Orange Blossom Special
TTITLE12=Pickin`Time - Don`t take your Guns To Town
TTITLE13=Ragged Old Flag
TTITLE14=Man In Black
EXTD=
EXTT0=
EXTT1=
EXTT2=
EXTT3=
EXTT4=
EXTT5=
EXTT6=
EXTT7=
EXTT8=
EXTT9=
EXTT10=
EXTT11=
EXTT12=
EXTT13=
EXTT14=
PLAYORDER=
